<?xml version="1.0" encoding="UTF-8" standalone="no"?>
<!-- Created with Inkscape (http://www.inkscape.org/) -->
<svg
   xmlns:dc="http://purl.org/dc/elements/1.1/"
   xmlns:cc="http://creativecommons.org/ns#"
   xmlns:rdf="http://www.w3.org/1999/02/22-rdf-syntax-ns#"
   xmlns:svg="http://www.w3.org/2000/svg"
   xmlns="http://www.w3.org/2000/svg"
   xmlns:sodipodi="http://sodipodi.sourceforge.net/DTD/sodipodi-0.dtd"
   xmlns:inkscape="http://www.inkscape.org/namespaces/inkscape"
   width="64"
   height="64"
   id="svg2"
   sodipodi:version="0.32"
   inkscape:version="0.46"
   version="1.0"
   sodipodi:docname="bing.svg"
   inkscape:output_extension="org.inkscape.output.svg.inkscape">
  <defs
     id="defs4">
    <inkscape:perspective
       sodipodi:type="inkscape:persp3d"
       inkscape:vp_x="0 : 526.18109 : 1"
       inkscape:vp_y="0 : 1000 : 0"
       inkscape:vp_z="744.09448 : 526.18109 : 1"
       inkscape:persp3d-origin="372.04724 : 350.78739 : 1"
       id="perspective10" />
    <inkscape:perspective
       id="perspective2410"
       inkscape:persp3d-origin="372.04724 : 350.78739 : 1"
       inkscape:vp_z="744.09448 : 526.18109 : 1"
       inkscape:vp_y="0 : 1000 : 0"
       inkscape:vp_x="0 : 526.18109 : 1"
       sodipodi:type="inkscape:persp3d" />
  </defs>
  <sodipodi:namedview
     id="base"
     pagecolor="#ffffff"
     bordercolor="#666666"
     borderopacity="1.0"
     inkscape:pageopacity="0.0"
     inkscape:pageshadow="2"
     inkscape:zoom="3.959798"
     inkscape:cx="53.804589"
     inkscape:cy="35.511235"
     inkscape:document-units="px"
     inkscape:current-layer="layer1"
     showgrid="false"
     inkscape:window-width="1280"
     inkscape:window-height="729"
     inkscape:window-x="0"
     inkscape:window-y="25" />
  <metadata
     id="metadata7">
    <rdf:RDF>
      <cc:Work
         rdf:about="">
        <dc:format>image/svg+xml</dc:format>
        <dc:type
           rdf:resource="http://purl.org/dc/dcmitype/StillImage" />
      </cc:Work>
    </rdf:RDF>
  </metadata>
  <g
     inkscape:label="Calque 1"
     inkscape:groupmode="layer"
     id="layer1">
    <g
       id="g3201"
       transform="matrix(0.6756846,0,0,0.6756846,-32.538437,-266.15639)">
      <path
         sodipodi:nodetypes="cccsssssssccccsssc"
         id="path2416"
         d="M 48.15625,402 L 48.15625,448.96875 C 48.528712,452.7693 49.027443,454.80208 50.03125,457.71875 C 52.363757,463.13075 56.741386,467.89467 62.4375,471.59375 C 71.044607,477.18324 82.703695,480.53126 95.53125,480.53125 C 108.35881,480.53126 120.01789,477.18323 128.625,471.59375 C 137.23212,466.00427 142.875,458.00359 142.875,448.96875 C 142.875,439.93392 137.23211,431.90198 128.625,426.3125 C 120.0179,420.72302 108.35881,417.40624 95.53125,417.40625 C 82.703694,417.40625 71.044608,420.72302 62.4375,426.3125 C 62.19652,426.46899 61.955071,426.62096 61.71875,426.78125 L 61.71875,402 L 48.15625,402 z M 95.71875,424.875 C 114.05304,424.87501 128.9375,435.57268 128.9375,448.78125 C 128.93751,461.98982 114.05304,472.71875 95.71875,472.71875 C 77.384465,472.71876 62.5,461.98982 62.5,448.78125 C 62.500002,435.57267 77.384465,424.875 95.71875,424.875 z"
         style="opacity:1;fill:#0480c4;fill-opacity:1;fill-rule:nonzero;stroke:none;stroke-width:4.90455914;stroke-linecap:round;stroke-linejoin:round;marker:none;stroke-miterlimit:4;stroke-dasharray:none;stroke-dashoffset:0;stroke-opacity:1;visibility:visible;display:inline;overflow:visible;enable-background:accumulate" />
      <path
         transform="matrix(1.0192308,0,0,1.0357143,-3.4890108,-17.176201)"
         d="M 125.71428,450.93362 A 27.857143,20 0 1 1 69.999996,450.93362 A 27.857143,20 0 1 1 125.71428,450.93362 z"
         sodipodi:ry="20"
         sodipodi:rx="27.857143"
         sodipodi:cy="450.93362"
         sodipodi:cx="97.85714"
         id="path3195"
         style="opacity:1;fill:#fbb134;fill-opacity:1;fill-rule:nonzero;stroke:none;stroke-width:5;stroke-linecap:round;stroke-linejoin:round;marker:none;marker-start:none;marker-mid:none;marker-end:none;stroke-miterlimit:4;stroke-dasharray:none;stroke-dashoffset:0;stroke-opacity:1;visibility:visible;display:inline;overflow:visible;enable-background:accumulate"
         sodipodi:type="arc" />
    </g>
  </g>
</svg>
