<?xml version="1.0" encoding="UTF-8" standalone="no"?>
<!-- Created with Inkscape (http://www.inkscape.org/) -->
<svg
   xmlns:dc="http://purl.org/dc/elements/1.1/"
   xmlns:cc="http://creativecommons.org/ns#"
   xmlns:rdf="http://www.w3.org/1999/02/22-rdf-syntax-ns#"
   xmlns:svg="http://www.w3.org/2000/svg"
   xmlns="http://www.w3.org/2000/svg"
   xmlns:sodipodi="http://sodipodi.sourceforge.net/DTD/sodipodi-0.dtd"
   xmlns:inkscape="http://www.inkscape.org/namespaces/inkscape"
   width="64"
   height="64"
   id="svg2"
   sodipodi:version="0.32"
   inkscape:version="0.46"
   version="1.0"
   sodipodi:docname="yahoo.svg"
   inkscape:output_extension="org.inkscape.output.svg.inkscape"
   inkscape:export-filename="/home/mammique/dev/seeks/src/plugins/websearch/public/images/search_engines/yahoo_12x12_transparent.png"
   inkscape:export-xdpi="16.879999"
   inkscape:export-ydpi="16.879999">
  <defs
     id="defs4">
    <inkscape:perspective
       sodipodi:type="inkscape:persp3d"
       inkscape:vp_x="0 : 526.18109 : 1"
       inkscape:vp_y="0 : 1000 : 0"
       inkscape:vp_z="744.09448 : 526.18109 : 1"
       inkscape:persp3d-origin="372.04724 : 350.78739 : 1"
       id="perspective10" />
    <inkscape:perspective
       id="perspective2410"
       inkscape:persp3d-origin="372.04724 : 350.78739 : 1"
       inkscape:vp_z="744.09448 : 526.18109 : 1"
       inkscape:vp_y="0 : 1000 : 0"
       inkscape:vp_x="0 : 526.18109 : 1"
       sodipodi:type="inkscape:persp3d" />
    <inkscape:perspective
       id="perspective3232"
       inkscape:persp3d-origin="372.04724 : 350.78739 : 1"
       inkscape:vp_z="744.09448 : 526.18109 : 1"
       inkscape:vp_y="0 : 1000 : 0"
       inkscape:vp_x="0 : 526.18109 : 1"
       sodipodi:type="inkscape:persp3d" />
  </defs>
  <sodipodi:namedview
     id="base"
     pagecolor="#ffffff"
     bordercolor="#666666"
     borderopacity="1.0"
     inkscape:pageopacity="0.0"
     inkscape:pageshadow="2"
     inkscape:zoom="2.8"
     inkscape:cx="2.1611686"
     inkscape:cy="53.532014"
     inkscape:document-units="px"
     inkscape:current-layer="layer1"
     showgrid="false"
     inkscape:window-width="1280"
     inkscape:window-height="729"
     inkscape:window-x="0"
     inkscape:window-y="25" />
  <metadata
     id="metadata7">
    <rdf:RDF>
      <cc:Work
         rdf:about="">
        <dc:format>image/svg+xml</dc:format>
        <dc:type
           rdf:resource="http://purl.org/dc/dcmitype/StillImage" />
      </cc:Work>
    </rdf:RDF>
  </metadata>
  <g
     inkscape:label="Calque 1"
     inkscape:groupmode="layer"
     id="layer1">
    <rect
       style="opacity:1;fill:#592c71;fill-opacity:1;fill-rule:nonzero;stroke:none;stroke-width:1;stroke-linecap:butt;stroke-linejoin:miter;marker:none;marker-start:none;marker-mid:none;marker-end:none;stroke-miterlimit:4;stroke-dasharray:none;stroke-dashoffset:0;stroke-opacity:1;visibility:visible;display:inline;overflow:visible;enable-background:accumulate;color:#000000"
       id="rect3311"
       width="64"
       height="64"
       x="0"
       y="0"
       ry="9.9124584" />
    <path
       id="path2217"
       d="M 59.214603,21.320689 C 58.207735,21.42017 54.016214,22.35921 52.607404,22.66117 C 51.098857,23.062611 37.316459,33.710602 36.411082,36.325246 C 36.210361,37.230122 36.109749,38.622355 36.109749,39.930681 L 36.008762,42.0439 C 36.008762,43.551691 36.427661,45.983451 36.628257,47.290772 C 37.534388,47.492749 44.092227,47.316397 45.29906,47.516865 L 45.150593,50.221444 C 43.971391,50.13553 35.643997,50.155626 30.886492,50.155626 C 28.471437,50.155626 20.708019,50.421915 18.322735,50.350066 L 18.773666,47.778129 C 20.081618,47.676638 25.497053,48.011758 26.68756,46.755183 C 27.278921,46.131667 27.09051,45.463436 27.09051,41.842425 L 27.09051,40.132657 C 27.09051,39.327765 27.09051,37.817964 26.888658,36.409151 C 26.385978,34.899853 14.246651,19.742557 11.128196,17.328886 C 10.222064,17.027427 4.5478744,16.459933 3.1396901,16.157471 L 3.0696014,13.840516 C 3.7721244,13.488313 10.081761,13.92618 16.20487,13.699584 C 20.22908,13.550865 29.410982,13.699584 30.543835,13.834488 L 30.253557,15.876361 C 29.046719,16.178573 23.23273,16.290363 21.723431,16.692307 C 25.647155,22.527021 31.850778,30.038847 33.863136,32.956455 C 34.970365,31.347174 44.695644,24.656319 44.997099,22.34263 C 43.487552,22.039666 38.491014,21.320689 37.685872,21.320689 L 37.207936,18.686451 C 38.577683,18.472163 45.780011,18.686451 49.360704,18.686451 C 52.450895,18.686451 59.054078,18.686451 60.930399,18.840193 L 59.214603,21.320689"
       style="fill:#ffffff" />
  </g>
</svg>
